<?xml version="1.0" encoding="UTF-8" standalone="no"?>
<!-- Creator: CorelDRAW X7 -->

<svg xmlns:dc="http://purl.org/dc/elements/1.1/" xmlns:cc="http://creativecommons.org/ns#" xmlns:rdf="http://www.w3.org/1999/02/22-rdf-syntax-ns#" xmlns:svg="http://www.w3.org/2000/svg" xmlns="http://www.w3.org/2000/svg" xmlns:inkscape="http://www.inkscape.org/namespaces/inkscape" xml:space="preserve" width="100" height="100" version="1.1" style="fill-rule:evenodd" viewBox="0 0 2822.2222 2822.2223" id="svg3192">
    <g id="g3367" transform="matrix(0.31585573,0,0,0.31589988,2846.7881,-197.45112)">
        <g transform="matrix(1.2487998,0,0,1.2487998,741.93687,-2155.9098)" id="g3295">
            <path class="logo-fill-white" id="path3200" d="m -7430.4005,2226.9007 6393,0 c 209,0 381,171 381,381 l 0,6392 c 0,210 -172,381 -381,381 l -6393,0 c -209,0 -381,-171 -381,-381 l 0,-6392 c 0,-210 172,-381 381,-381 z m 196,1154 6040,0 c 173,0 314,141 314,313 l 0,5151 c 0,173 -141,314 -314,314 l -6040,0 c -172,0 -313,-141 -313,-314 l 0,-5151 c 0,-172 141,-313 313,-313 z" class="fil0" />
            <rect class="logo-fill-none" id="rect3202" ry="314" rx="362" height="5779" width="6667" y="3380.9006" x="-7547.4004" class="fil1" />
            <g id="_266153440" transform="translate(-9677.4005,711.90072)">
                <rect class="logo-fill-white" id="rect3205" height="909" width="1795" y="3433" x="2795" class="fil0" />
                <rect class="logo-fill-none" id="rect3207" height="909" width="1795" y="3432" x="4590" class="fil1" />
                <rect class="logo-fill-white" id="rect3209" height="909" width="1795" y="3435" x="6385" class="fil0" />
                <rect class="logo-fill-none" id="rect3211" height="909" width="1795" y="4340" x="2796" class="fil1" />
                <rect class="logo-fill-white" id="rect3213" height="909" width="1795" y="4336" x="4596" class="fil0" />
                <rect class="logo-fill-none" id="rect3215" height="909" width="1795" y="4341" x="6386" class="fil1" />
                <rect class="logo-fill-white" id="rect3217" height="909" width="1795" y="5245" x="2796" class="fil0" />
                <rect class="logo-fill-none" id="rect3219" height="909" width="1795" y="5247" x="4591" class="fil1" />
                <rect class="logo-fill-white" id="rect3221" height="909" width="1795" y="5247" x="6386" class="fil0" />
                <rect class="logo-fill-none" id="rect3223" height="909" width="1795" y="6157" x="2795" class="fil1" />
                <rect class="logo-fill-white" id="rect3225" height="909" width="1795" y="6160" x="4595" class="fil0" />
                <rect class="logo-fill-none" id="rect3227" height="909" width="1795" y="6166" x="6385" class="fil1" />
                <rect class="logo-fill-white" id="rect3229" height="909" width="1795" y="7072" x="2795" class="fil0" />
                <rect class="logo-fill-none" id="rect3231" height="909" width="1795" y="7075" x="4599" class="fil1" />
                <rect class="logo-fill-white" id="rect3233" height="909" width="1795" y="7076" x="6395" class="fil0" />
            </g>
        </g>
    </g>
</svg>
