<?xml version="1.0" encoding="utf-8"?>
<!-- Generator: Adobe Illustrator 16.0.0, SVG Export Plug-In . SVG Version: 6.00 Build 0)  -->
<!DOCTYPE svg PUBLIC "-//W3C//DTD SVG 1.1//EN" "http://www.w3.org/Graphics/SVG/1.1/DTD/svg11.dtd">
<svg version="1.1" id="Layer_1" xmlns="http://www.w3.org/2000/svg" xmlns:xlink="http://www.w3.org/1999/xlink" x="0px" y="0px"
	 width="558px" height="132px" viewBox="0 0 558 132" enable-background="new 0 0 558 132" xml:space="preserve">
<g>
	<g>
		<path fill="#262F33" d="M119.586,13.616c0,0-53.239,0-72.894,0c-19.314,0-29.089,20.207-29.089,24.248c5.316,0,61.023,0,61.023,0
			s-40.08,20.233-51.738,26.097C2.26,76.344,3.838,100.506,3.838,100.506s58.019,0,72.895,0c16.597,0,26.994-15.155,29.169-24.248
			c-4.144,0-59.864,0-59.864,0s34.374-17.671,51.146-26.293C117.431,39.557,119.586,13.616,119.586,13.616z"/>
		<path fill="#262F33" d="M106.809,100.533c0,0,8.12-32.568,8.677-34.921c4.85-20.478,29.396-20.547,29.396-20.547
			s-6.033,24.044-8.811,35.563C131.26,100.584,106.809,100.533,106.809,100.533z"/>
		<path fill="#00A6E8" d="M121.135,38.729c4.42-20.23,10.551-25.821,29.78-25.821C146.496,33.135,140.188,38.729,121.135,38.729z"/>
		<path fill="#262F33" d="M181.132,44.937c-2.285,0-5.292,0-5.292,0s-1.071,0-2.013,0c-14.266,0-24.171,9.069-26.773,20.805
			c-0.574,2.588-13.745,63.216-13.745,63.216s23.587-0.604,28.582-21.184c1.536-6.331,6.391-9.989,14.571-11.339
			c8.413-1.388,14.302-6.542,15.892-13.94c0.388-1.815,2.162-10.098,4.189-19.288C198.413,54.735,193.442,44.937,181.132,44.937z
			 M178.533,65.332c-0.228,1.009-1.311,7.194-2.186,11.283c-0.797,3.721-2.871,5.044-6.951,5.662
			c-3.934,0.594-7.213,1.892-9.307,4.11c0.365-1.685,3.138-15.514,3.795-18.628c1.031-4.883,4.737-7.853,8.6-7.853
			C176.417,59.907,179.36,61.689,178.533,65.332z"/>
		<path fill="#262F33" d="M237.073,44.937c-2.285,0-5.292,0-5.292,0s-1.07,0-2.012,0c-14.266,0-24.17,9.069-26.773,20.805
			c-0.574,2.588-13.746,63.216-13.746,63.216s23.589-0.604,28.582-21.184c1.538-6.331,6.392-9.989,14.572-11.339
			c8.413-1.388,14.302-6.542,15.89-13.94c0.39-1.815,2.164-10.098,4.191-19.288C254.354,54.735,249.384,44.937,237.073,44.937z
			 M234.475,65.332c-0.229,1.009-1.312,7.194-2.187,11.283c-0.797,3.721-2.87,5.044-6.952,5.662
			c-3.933,0.594-7.212,1.892-9.307,4.11c0.366-1.685,3.139-15.514,3.797-18.628c1.03-4.883,4.735-7.853,8.6-7.853
			C232.358,59.907,235.301,61.689,234.475,65.332z"/>
		<path fill="#262F33" d="M319.599,43.927c0,0-8.068,0-9.644,0c-6.299,0-11.811,2.741-17.479,8.898
			c-2.351,2.553-15.09,18.468-15.09,18.468l5.794-26.874c0,0-19.121-1.879-24.337,20.968c-1.088,4.773-13.705,63.3-13.705,63.3
			s23.787-0.047,28.587-21.068c0.354-1.541,0.586-2.738,1.671-7.835c1.156-5.435,3.67-10.992,7.457-15.118
			C285.183,82.128,319.599,43.927,319.599,43.927z"/>
	</g>
	<g>
		<path fill-rule="evenodd" clip-rule="evenodd" fill="#CECECE" d="M356.922,38.799c12.148-5.485,30.336-13.491,36.106-16.049
			c-5.579,25.535-10.109,27.633-22.666,33.125c-3.605,1.579-14.392,6.393-14.392,6.393l25.727,12.343l-5.626,25.755
			c0,0-41.333-23.036-46.454-25.755C334.851,50.656,338.135,47.282,356.922,38.799z"/>
		<path opacity="0.5" fill-rule="evenodd" clip-rule="evenodd" d="M329.617,74.61c5.052,2.719,46.454,25.755,46.454,25.755
			l5.626-25.755l-25.727-12.343C355.971,62.268,329.617,74.608,329.617,74.61z"/>
		<path fill-rule="evenodd" clip-rule="evenodd" fill="#CECECE" d="M526.513,77.566c-12.147,5.486-30.335,13.493-36.107,16.05
			c5.581-25.534,10.111-27.633,22.665-33.126c3.607-1.577,14.394-6.395,14.394-6.395l-25.726-12.341l5.626-25.754
			c0,0,41.331,23.035,46.453,25.754C548.585,65.709,545.301,69.083,526.513,77.566z"/>
		<path opacity="0.5" fill-rule="evenodd" clip-rule="evenodd" d="M553.813,41.755c-5.052-2.719-46.451-25.754-46.451-25.754
			l-5.626,25.754l25.698,12.328l26.379-12.322C553.813,41.759,553.813,41.757,553.813,41.755z"/>
		<path fill="#262F33" d="M467.82,4.302c-15.529,0-30.961,8.104-34.924,26.327c-2.17,9.992-9.975,45.566-10.555,48.229
			c-0.58,2.664-2.546,3.852-5.987,3.852c0.452-2.065,15.811-72.403,17.137-78.407c-15.53,0-30.397,8.672-34.359,26.895
			c-3.851,17.705-16.951,78.402-16.951,78.402h33.768c15.362,0,30.618-8.194,34.781-26.003l0.01-0.266h-0.008
			c0.044,0,0.095-0.688,0.139-0.881C451.215,80.854,467.82,4.302,467.82,4.302z"/>
		<path fill="#262F33" d="M496.679,36.712c-15.53,0-30.307,5.116-34.063,22.323c-3.866,17.701-10.875,49.429-10.875,49.429
			c15.53,0,30.959-8.104,34.922-26.327C487.009,80.543,496.679,36.712,496.679,36.712z"/>
		<path display="none" fill="#819B9B" d="M464.622,30.629c4.398-20.131,12.4-26.327,34.982-26.327
			C495.607,22.41,489.184,30.629,464.622,30.629z"/>
		<path fill="#00A6E8" d="M468.965,33.232c5.141-23.53,12.272-30.036,34.638-30.036C498.464,26.725,491.127,33.232,468.965,33.232z"
			/>
	</g>
</g>
<g display="none">
	<g display="inline">
		<path fill="#FFFFFF" d="M121.397,14.239c0,0-52.694,0-72.148,0c-19.116,0-28.791,20-28.791,24c5.262,0,60.398,0,60.398,0
			s-39.67,20.025-51.209,25.828C5.271,76.323,6.834,100.239,6.834,100.239s57.426,0,72.149,0c16.427,0,26.718-15,28.871-24
			c-4.102,0-59.252,0-59.252,0s34.022-17.49,50.623-26.023C119.265,39.913,121.397,14.239,121.397,14.239z"/>
		<path fill="#FFFFFF" d="M108.751,99.835c0,0,8.036-32.236,8.588-34.564c4.8-20.268,29.096-20.336,29.096-20.336
			s-5.972,23.797-8.721,35.199C132.952,99.884,108.751,99.835,108.751,99.835z"/>
		<path fill="#00A6E8" d="M122.931,38.663c4.375-20.023,10.443-25.557,29.476-25.557C148.032,33.126,141.789,38.663,122.931,38.663z
			"/>
		<path fill="#FFFFFF" d="M182.313,45.239c-2.262,0-5.237,0-5.237,0s-1.061,0-1.992,0c-14.12,0-23.924,8.76-26.499,20.375
			c-0.568,2.561-13.604,62.461-13.604,62.461s23.346-0.652,28.289-21.021c1.521-6.266,6.325-9.912,14.422-11.248
			c8.327-1.375,14.155-6.49,15.729-13.813c0.384-1.797,2.14-9.785,4.146-18.881C199.418,54.728,194.498,45.239,182.313,45.239z
			 M179.741,64.993c-0.226,0.998-1.298,7.121-2.164,11.168c-0.789,3.684-2.841,4.992-6.88,5.604
			c-3.894,0.588-7.14,1.873-9.212,4.068c0.361-1.666,3.105-15.354,3.757-18.438c1.021-4.832,4.688-7.771,8.512-7.771
			C177.647,59.624,180.56,61.388,179.741,64.993z"/>
		<path fill="#FFFFFF" d="M237.683,45.239c-2.262,0-5.238,0-5.238,0s-1.06,0-1.991,0c-14.12,0-23.923,8.76-26.499,20.375
			c-0.568,2.561-13.605,62.461-13.605,62.461s23.348-0.652,28.289-21.021c1.522-6.266,6.326-9.912,14.423-11.248
			c8.326-1.375,14.155-6.49,15.728-13.813c0.386-1.797,2.142-9.785,4.148-18.881C254.786,54.728,249.867,45.239,237.683,45.239z
			 M235.11,64.993c-0.227,0.998-1.298,7.121-2.164,11.168c-0.789,3.684-2.841,4.992-6.881,5.604
			c-3.893,0.588-7.139,1.873-9.212,4.068c0.362-1.666,3.106-15.354,3.758-18.438c1.02-4.832,4.687-7.771,8.512-7.771
			C233.016,59.624,235.929,61.388,235.11,64.993z"/>
		<path fill="#FFFFFF" d="M319.363,44.239c0,0-7.986,0-9.545,0c-6.234,0-11.689,2.496-17.301,8.592
			c-2.326,2.525-14.935,18.17-14.935,18.17l5.734-26.652c0,0-18.925-1.887-24.087,20.727c-1.077,4.725-13.564,62.639-13.564,62.639
			s23.543-0.055,28.294-20.859c0.35-1.525,0.58-2.715,1.654-7.76c1.145-5.379,3.633-10.664,7.38-14.748
			C285.299,81.835,319.363,44.239,319.363,44.239z"/>
	</g>
	<g display="inline">
		<path fill-rule="evenodd" clip-rule="evenodd" fill="#CECECE" d="M356.305,39.163c12.023-5.43,30.025-13.354,35.736-15.885
			c-5.521,25.273-10.006,27.35-22.434,32.787c-3.568,1.563-14.244,6.326-14.244,6.326l25.463,12.217l-5.568,25.49
			c0,0-40.91-22.799-45.979-25.49C334.459,50.899,337.709,47.56,356.305,39.163z"/>
		<path opacity="0.5" fill-rule="evenodd" clip-rule="evenodd" d="M329.279,74.608c5,2.691,45.979,25.49,45.979,25.49l5.568-25.49
			l-25.463-12.217C355.363,62.392,329.279,74.606,329.279,74.608z"/>
		<path fill-rule="evenodd" clip-rule="evenodd" fill="#CECECE" d="M524.16,77.534c-12.023,5.43-30.025,13.355-35.738,15.885
			c5.523-25.271,10.008-27.35,22.434-32.785c3.57-1.563,14.246-6.33,14.246-6.33l-25.463-12.215l5.568-25.49
			c0,0,40.908,22.799,45.979,25.49C546.006,65.798,542.756,69.138,524.16,77.534z"/>
		<path opacity="0.5" fill-rule="evenodd" clip-rule="evenodd" d="M551.182,42.089c-5-2.691-45.977-25.49-45.977-25.49l-5.568,25.49
			l25.436,12.203l26.109-12.197C551.182,42.093,551.182,42.091,551.182,42.089z"/>
		<path fill="#FFFFFF" d="M466.068,5.019c-15.371,0-30.645,8.021-34.566,26.059c-2.148,9.891-9.873,45.1-10.447,47.734
			c-0.574,2.637-2.52,3.813-5.926,3.813c0.447-2.045,15.648-71.662,16.961-77.605c-15.371,0-30.086,8.584-34.008,26.619
			c-3.811,17.525-16.777,77.602-16.777,77.602h33.422c15.205,0,30.305-8.111,34.426-25.738l0.01-0.262h-0.008
			c0.043,0,0.094-0.682,0.137-0.873C449.633,80.788,466.068,5.019,466.068,5.019z"/>
		<path fill="#FFFFFF" d="M494.631,37.099c-15.371,0-29.996,5.063-33.715,22.094c-3.826,17.52-10.764,48.924-10.764,48.924
			c15.371,0,30.643-8.021,34.564-26.059C485.061,80.479,494.631,37.099,494.631,37.099z"/>
		<path display="none" fill="#819B9B" d="M462.902,31.077c4.354-19.926,12.273-26.059,34.625-26.059
			C493.57,22.942,487.213,31.077,462.902,31.077z"/>
		<path fill="#00A6E8" d="M467.201,33.653c5.088-23.289,12.146-29.729,34.283-29.729C496.398,27.212,489.137,33.653,467.201,33.653z
			"/>
	</g>
</g>
</svg>
