<?xml version="1.0" encoding="utf-8"?>
<!-- Generator: Adobe Illustrator 16.0.0, SVG Export Plug-In . SVG Version: 6.00 Build 0)  -->
<!DOCTYPE svg PUBLIC "-//W3C//DTD SVG 1.1//EN" "http://www.w3.org/Graphics/SVG/1.1/DTD/svg11.dtd">
<svg version="1.1" id="Layer_1" xmlns="http://www.w3.org/2000/svg" xmlns:xlink="http://www.w3.org/1999/xlink" x="0px" y="0px"
	 width="140px" height="130px" viewBox="0 0 140 130" enable-background="new 0 0 140 130" xml:space="preserve">
<g display="none">
	<g display="inline">
		<path fill="#262F33" d="M-280.414,12.616c0,0-53.239,0-72.894,0c-19.314,0-29.089,20.207-29.089,24.248c5.316,0,61.023,0,61.023,0
			s-40.08,20.233-51.738,26.097c-24.628,12.383-23.049,36.545-23.049,36.545s58.019,0,72.895,0
			c16.597,0,26.994-15.155,29.169-24.248c-4.144,0-59.864,0-59.864,0s34.374-17.671,51.146-26.293
			C-282.569,38.557-280.414,12.616-280.414,12.616z"/>
		<path fill="#262F33" d="M-293.191,99.533c0,0,8.12-32.568,8.677-34.921c4.85-20.478,29.396-20.547,29.396-20.547
			s-6.033,24.044-8.811,35.563C-268.74,99.584-293.191,99.533-293.191,99.533z"/>
		<path fill="#00A6E8" d="M-278.865,37.729c4.42-20.23,10.551-25.821,29.78-25.821C-253.504,32.135-259.812,37.729-278.865,37.729z"
			/>
		<path fill="#262F33" d="M-218.868,43.937c-2.285,0-5.292,0-5.292,0s-1.071,0-2.013,0c-14.266,0-24.171,9.069-26.773,20.805
			c-0.574,2.588-13.745,63.216-13.745,63.216s23.587-0.604,28.582-21.184c1.536-6.331,6.391-9.989,14.571-11.339
			c8.413-1.388,14.302-6.542,15.892-13.94c0.388-1.815,2.162-10.098,4.189-19.288C-201.587,53.735-206.558,43.937-218.868,43.937z
			 M-221.467,64.332c-0.228,1.009-1.311,7.194-2.186,11.283c-0.797,3.721-2.871,5.044-6.951,5.662
			c-3.934,0.594-7.213,1.892-9.307,4.11c0.365-1.685,3.138-15.514,3.795-18.628c1.031-4.883,4.737-7.853,8.6-7.853
			C-223.583,58.907-220.64,60.689-221.467,64.332z"/>
		<path fill="#262F33" d="M-162.927,43.937c-2.285,0-5.292,0-5.292,0s-1.07,0-2.012,0c-14.266,0-24.17,9.069-26.773,20.805
			c-0.574,2.588-13.746,63.216-13.746,63.216s23.589-0.604,28.582-21.184c1.538-6.331,6.392-9.989,14.572-11.339
			c8.413-1.388,14.302-6.542,15.89-13.94c0.39-1.815,2.164-10.098,4.191-19.288C-145.646,53.735-150.616,43.937-162.927,43.937z
			 M-165.525,64.332c-0.229,1.009-1.312,7.194-2.187,11.283c-0.797,3.721-2.87,5.044-6.952,5.662
			c-3.933,0.594-7.212,1.892-9.307,4.11c0.366-1.685,3.139-15.514,3.797-18.628c1.03-4.883,4.735-7.853,8.6-7.853
			C-167.642,58.907-164.699,60.689-165.525,64.332z"/>
		<path fill="#262F33" d="M-80.401,42.927c0,0-8.068,0-9.644,0c-6.299,0-11.811,2.741-17.479,8.898
			c-2.351,2.553-15.09,18.468-15.09,18.468l5.794-26.874c0,0-19.121-1.879-24.337,20.968c-1.088,4.773-13.705,63.3-13.705,63.3
			s23.787-0.047,28.587-21.068c0.354-1.541,0.586-2.738,1.671-7.835c1.156-5.435,3.67-10.992,7.457-15.118
			C-114.817,81.128-80.401,42.927-80.401,42.927z"/>
	</g>
	<g display="inline">
		<path fill-rule="evenodd" clip-rule="evenodd" fill="#CECECE" d="M-43.078,37.799C-30.93,32.313-12.742,24.308-6.972,21.75
			c-5.579,25.535-10.109,27.633-22.666,33.125c-3.605,1.579-14.392,6.393-14.392,6.393l25.727,12.343l-5.626,25.755
			c0,0-41.333-23.036-46.454-25.755C-65.149,49.656-61.865,46.282-43.078,37.799z"/>
		<path opacity="0.5" fill-rule="evenodd" clip-rule="evenodd" d="M-70.383,73.61c5.052,2.719,46.454,25.755,46.454,25.755
			l5.626-25.755l-25.727-12.343C-44.029,61.268-70.383,73.608-70.383,73.61z"/>
		<path fill-rule="evenodd" clip-rule="evenodd" fill="#CECECE" d="M126.513,76.566c-12.147,5.486-30.335,13.493-36.107,16.05
			c5.581-25.534,10.111-27.633,22.665-33.126c3.607-1.577,14.394-6.395,14.394-6.395l-25.726-12.341l5.626-25.754
			c0,0,41.331,23.035,46.453,25.754C148.585,64.709,145.301,68.083,126.513,76.566z"/>
		<path opacity="0.5" fill-rule="evenodd" clip-rule="evenodd" d="M153.813,40.755c-5.052-2.719-46.451-25.754-46.451-25.754
			l-5.626,25.754l25.698,12.328l26.379-12.322C153.813,40.759,153.813,40.757,153.813,40.755z"/>
		<path fill="#262F33" d="M67.82,3.302c-15.529,0-30.961,8.104-34.924,26.327c-2.17,9.992-9.975,45.566-10.555,48.229
			c-0.58,2.664-2.546,3.852-5.987,3.852c0.452-2.065,15.811-72.403,17.137-78.407c-15.53,0-30.397,8.672-34.359,26.895
			c-3.851,17.705-16.951,78.402-16.951,78.402h33.768c15.362,0,30.618-8.194,34.781-26.003l0.01-0.266h-0.008
			c0.044,0,0.095-0.688,0.139-0.881C51.215,79.854,67.82,3.302,67.82,3.302z"/>
		<path fill="#262F33" d="M96.679,35.712c-15.53,0-30.307,5.116-34.063,22.323c-3.866,17.701-10.875,49.429-10.875,49.429
			c15.53,0,30.959-8.104,34.922-26.327C87.009,79.543,96.679,35.712,96.679,35.712z"/>
		<path display="none" fill="#819B9B" d="M64.622,29.629c4.398-20.131,12.4-26.327,34.982-26.327
			C95.607,21.41,89.184,29.629,64.622,29.629z"/>
		<path fill="#00A6E8" d="M68.965,32.232c5.141-23.53,12.272-30.036,34.638-30.036C98.464,25.725,91.127,32.232,68.965,32.232z"/>
	</g>
</g>
<g display="none">
	<g display="inline">
		<path fill="#FFFFFF" d="M-278.603,13.239c0,0-52.694,0-72.148,0c-19.116,0-28.791,20-28.791,24c5.262,0,60.398,0,60.398,0
			s-39.67,20.025-51.209,25.828c-24.376,12.256-22.813,36.172-22.813,36.172s57.426,0,72.149,0c16.427,0,26.718-15,28.871-24
			c-4.102,0-59.252,0-59.252,0s34.022-17.49,50.623-26.023C-280.735,38.913-278.603,13.239-278.603,13.239z"/>
		<path fill="#FFFFFF" d="M-291.249,98.835c0,0,8.036-32.236,8.588-34.564c4.8-20.268,29.096-20.336,29.096-20.336
			s-5.972,23.797-8.721,35.199C-267.048,98.884-291.249,98.835-291.249,98.835z"/>
		<path fill="#00A6E8" d="M-277.069,37.663c4.375-20.023,10.443-25.557,29.476-25.557
			C-251.968,32.126-258.211,37.663-277.069,37.663z"/>
		<path fill="#FFFFFF" d="M-217.687,44.239c-2.262,0-5.237,0-5.237,0s-1.061,0-1.992,0c-14.12,0-23.924,8.76-26.499,20.375
			c-0.568,2.561-13.604,62.461-13.604,62.461s23.346-0.652,28.289-21.021c1.521-6.266,6.325-9.912,14.422-11.248
			c8.327-1.375,14.155-6.49,15.729-13.813c0.384-1.797,2.14-9.785,4.146-18.881C-200.582,53.728-205.502,44.239-217.687,44.239z
			 M-220.259,63.993c-0.226,0.998-1.298,7.121-2.164,11.168c-0.789,3.684-2.841,4.992-6.88,5.604
			c-3.894,0.588-7.14,1.873-9.212,4.068c0.361-1.666,3.105-15.354,3.757-18.438c1.021-4.832,4.688-7.771,8.512-7.771
			C-222.353,58.624-219.44,60.388-220.259,63.993z"/>
		<path fill="#FFFFFF" d="M-162.317,44.239c-2.262,0-5.238,0-5.238,0s-1.06,0-1.991,0c-14.12,0-23.923,8.76-26.499,20.375
			c-0.568,2.561-13.605,62.461-13.605,62.461s23.348-0.652,28.289-21.021c1.522-6.266,6.326-9.912,14.423-11.248
			c8.326-1.375,14.155-6.49,15.728-13.813c0.386-1.797,2.142-9.785,4.148-18.881C-145.214,53.728-150.133,44.239-162.317,44.239z
			 M-164.89,63.993c-0.227,0.998-1.298,7.121-2.164,11.168c-0.789,3.684-2.841,4.992-6.881,5.604
			c-3.893,0.588-7.139,1.873-9.212,4.068c0.362-1.666,3.106-15.354,3.758-18.438c1.02-4.832,4.687-7.771,8.512-7.771
			C-166.984,58.624-164.071,60.388-164.89,63.993z"/>
		<path fill="#FFFFFF" d="M-80.637,43.239c0,0-7.986,0-9.545,0c-6.234,0-11.689,2.496-17.301,8.592
			c-2.326,2.525-14.935,18.17-14.935,18.17l5.734-26.652c0,0-18.925-1.887-24.087,20.727c-1.077,4.725-13.564,62.639-13.564,62.639
			s23.543-0.055,28.294-20.859c0.35-1.525,0.58-2.715,1.654-7.76c1.145-5.379,3.633-10.664,7.38-14.748
			C-114.701,80.835-80.637,43.239-80.637,43.239z"/>
	</g>
	<g display="inline">
		<path fill-rule="evenodd" clip-rule="evenodd" fill="#CECECE" d="M-43.695,38.163c12.023-5.43,30.025-13.354,35.736-15.885
			c-5.521,25.273-10.006,27.35-22.434,32.787c-3.568,1.563-14.244,6.326-14.244,6.326l25.463,12.217l-5.568,25.49
			c0,0-40.91-22.799-45.979-25.49C-65.541,49.899-62.291,46.56-43.695,38.163z"/>
		<path opacity="0.5" fill-rule="evenodd" clip-rule="evenodd" d="M-70.721,73.608c5,2.691,45.979,25.49,45.979,25.49l5.568-25.49
			l-25.463-12.217C-44.637,61.392-70.721,73.606-70.721,73.608z"/>
		<path fill-rule="evenodd" clip-rule="evenodd" fill="#CECECE" d="M124.16,76.534c-12.023,5.43-30.025,13.355-35.738,15.885
			c5.523-25.271,10.008-27.35,22.434-32.785c3.57-1.563,14.246-6.33,14.246-6.33L99.639,41.089l5.568-25.49
			c0,0,40.908,22.799,45.979,25.49C146.006,64.798,142.756,68.138,124.16,76.534z"/>
		<path opacity="0.5" fill-rule="evenodd" clip-rule="evenodd" d="M151.182,41.089c-5-2.691-45.977-25.49-45.977-25.49l-5.568,25.49
			l25.436,12.203l26.109-12.197C151.182,41.093,151.182,41.091,151.182,41.089z"/>
		<path fill="#FFFFFF" d="M66.068,4.019c-15.371,0-30.645,8.021-34.566,26.059c-2.148,9.891-9.873,45.1-10.447,47.734
			c-0.574,2.637-2.52,3.813-5.926,3.813C15.576,79.579,30.777,9.962,32.09,4.019c-15.371,0-30.086,8.584-34.008,26.619
			c-3.811,17.525-16.777,77.602-16.777,77.602h33.422c15.205,0,30.305-8.111,34.426-25.738l0.01-0.262h-0.008
			c0.043,0,0.094-0.682,0.137-0.873C49.633,79.788,66.068,4.019,66.068,4.019z"/>
		<path fill="#FFFFFF" d="M94.631,36.099c-15.371,0-29.996,5.063-33.715,22.094c-3.826,17.52-10.764,48.924-10.764,48.924
			c15.371,0,30.643-8.021,34.564-26.059C85.061,79.479,94.631,36.099,94.631,36.099z"/>
		<path display="none" fill="#819B9B" d="M62.902,30.077C67.256,10.151,75.176,4.019,97.527,4.019
			C93.57,21.942,87.213,30.077,62.902,30.077z"/>
		<path fill="#00A6E8" d="M67.201,32.653C72.289,9.364,79.348,2.925,101.484,2.925C96.398,26.212,89.137,32.653,67.201,32.653z"/>
	</g>
</g>
<g>
	<g display="none">
		<path display="inline" fill="#262F33" d="M95.344,65.323c0,0-4.921-3.804-10.41-8.133c-10.882-8.572-21.943-8.63-32.985,0.002
			c-2.905,2.271-10.41,8.132-10.41,8.132s7.496,5.826,10.938,8.544c10.555,8.331,22.015,7.689,32.484-0.438
			C89.009,70.29,95.344,65.323,95.344,65.323z"/>
		<path display="inline" fill="#262F33" d="M6.849,79.971c4.549,3.081,58.025,39.278,58.025,39.278V89.038L29.642,65.324
			c0,0,12.855-8.679,19.777-13.338c10.625-7.151,15.391-17.43,15.391-41.235c-3.957,2.688-33.961,23.111-43.965,29.821
			C10.845,47.283,6.849,61.741,6.849,79.971z"/>
		<path display="inline" opacity="0.4" d="M64.874,119.249V89.038L29.642,65.324L7.035,79.971
			C7.035,79.993,64.874,119.249,64.874,119.249z"/>
		<path display="inline" fill="#262F33" d="M132.786,50.029c-4.549-3.081-56.912-39.278-56.912-39.278v30.211l34.119,23.715
			c0,0-13.414,8.678-20.334,13.337c-10.625,7.152-15.67,17.43-15.67,41.235c3.955-2.688,34.379-23.111,44.381-29.82
			C128.374,82.718,132.786,68.26,132.786,50.029z"/>
		<path display="inline" opacity="0.4" d="M75.874,10.751v30.211l34.119,23.715l23.158-14.647
			C133.151,50.007,75.874,10.751,75.874,10.751z"/>
	</g>
	<g display="none">
		<path display="inline" fill="#00A6E8" d="M95.344,65.323c0,0-4.921-3.805-10.41-8.133c-10.882-8.572-21.943-8.631-32.985,0.002
			c-2.905,2.271-10.41,8.131-10.41,8.131s7.496,5.826,10.938,8.545c10.555,8.33,22.015,7.689,32.484-0.438
			C89.009,70.29,95.344,65.323,95.344,65.323z"/>
		<path display="inline" fill="#00A6E8" d="M6.849,79.972c4.549,3.08,58.025,39.277,58.025,39.277V89.038L29.642,65.323
			c0,0,12.855-8.678,19.777-13.338c10.625-7.15,15.391-17.428,15.391-41.234c-3.957,2.688-33.961,23.111-43.965,29.82
			C10.845,47.282,6.849,61.741,6.849,79.972z"/>
		<path display="inline" opacity="0.3" d="M64.874,119.249V89.038L29.642,65.323L7.035,79.972
			C7.035,79.993,64.874,119.249,64.874,119.249z"/>
		<path display="inline" fill="#00A6E8" d="M132.786,50.028c-4.549-3.08-56.912-39.277-56.912-39.277v30.211l34.119,23.715
			c0,0-13.414,8.678-20.334,13.336c-10.625,7.152-15.67,17.43-15.67,41.236c3.955-2.688,34.379-23.111,44.381-29.82
			C128.374,82.718,132.786,68.259,132.786,50.028z"/>
		<path display="inline" opacity="0.3" d="M75.874,10.751v30.211l34.119,23.715l23.158-14.648
			C133.151,50.007,75.874,10.751,75.874,10.751z"/>
	</g>
	<rect x="-416" y="-21" display="none" fill="#262F33" width="179" height="179"/>
	<g>
		<path fill="#FFFFFF" d="M95.504,65.323c0,0-4.92-3.804-10.41-8.133c-10.881-8.572-21.943-8.63-32.984,0.003
			c-2.906,2.271-10.41,8.131-10.41,8.131s7.496,5.826,10.938,8.544c10.555,8.331,22.016,7.689,32.484-0.437
			C89.17,70.29,95.504,65.323,95.504,65.323z"/>
		<path fill="#FFFFFF" d="M6.881,79.971c4.549,3.081,57.896,39.278,57.896,39.278V89.038L29.674,65.324
			c0,0,12.92-8.679,19.84-13.338c10.625-7.151,15.424-17.43,15.424-41.235C60.98,13.438,30.93,33.862,20.926,40.572
			C10.924,47.283,6.881,61.741,6.881,79.971z"/>
		<path opacity="0.2" d="M64.777,119.249V89.038L29.674,65.324L7.004,79.971C7.004,79.994,64.777,119.249,64.777,119.249z"/>
		<path fill="#FFFFFF" d="M132.818,50.029c-4.549-3.081-57.041-39.278-57.041-39.278v30.212l34.248,23.714
			c0,0-13.35,8.679-20.27,13.337c-10.625,7.152-15.639,17.43-15.639,41.235c3.955-2.688,34.332-23.111,44.332-29.82
			C128.453,82.718,132.818,68.26,132.818,50.029z"/>
		<path opacity="0.2" d="M75.777,10.751v30.212l34.248,23.714l23.094-14.647C133.119,50.007,75.777,10.751,75.777,10.751z"/>
	</g>
</g>
</svg>
